# xmcd
#
# Track frame offsets:
#	182
#	17677
#	30887
#	45797
#	65782
#	83252
#	101615
#	117850
#	134735
#	148362
#	165862
#	183132
#
# Disc length: 2679 seconds
#
# Revision: 4
# Processed by: cddbd v1.5.2PL0 Copyright (c) Steve Scherf et al.
# Submitted via: EZCDAudioConverter 7.1.8.1
#
DISCID=8e0a750c
DTITLE=ZEZÉ DI CAMARGO and LUCIANO - CORAÇÃO NA CONTRA MÃO [CD 598.012-2-464303)
DTITLE=COPACABANA
DYEAR=1992
DGENRE=SERTANEJO
TTITLE0=CORAÇÃO ESTÁ EM PEDAÇOS (BY GILMAR SINISTRO)
TTITLE1=MUDA DE VIDA (BY GILMAR SINISTRO)
TTITLE2=CARA OU COROA (A CARA O CRUZ) (BY GILMAR SINISTRO)
TTITLE3=VOANDO SEM ASAS (BY GILMAR SINISTRO)
TTITLE4=LEVA MINHA TIMIDEZ (BY GILMAR SINISTRO)
TTITLE5=GAROTO DE RUA (BY GILMAR SINISTRO)
TTITLE6=CORAÇÃO NA CONTRA-MÃO (BY GILMAR SINISTRO)
TTITLE7=ME LEVA PRA CASA (BY GILMAR SINISTRO)
TTITLE8=NÃO TEM JEITO NÃO (BY GILMAR SINISTRO)
TTITLE9=POR DEUS (BY GILMAR SINISTRO)
TTITLE10=LINDA, LINDA (BY GILMAR SINISTRO)
TTITLE11=CAMA DE CAPIM (BY GILMAR SINISTRO)
EXTD=
EXTT0=
EXTT1=
EXTT2=
EXTT3=
EXTT4=
EXTT5=
EXTT6=
EXTT7=
EXTT8=
EXTT9=
EXTT10=
EXTT11=
PLAYORDER=
